<svg width="1700" height="800" viewBox="0 0 1700 800" fill="none" xmlns="http://www.w3.org/2000/svg">
<g clip-path="url(#clip0)">
<g opacity="0.15">
<g style="mix-blend-mode:hard-light">
<rect x="-48.8495" y="3.41675" width="52.7779" height="671.624" rx="25.5" transform="rotate(-39.2836 -48.8495 3.41675)" fill="url(#paint0_linear)" fill-opacity="0.25"/>
</g>
<g style="mix-blend-mode:hard-light">
<rect x="81.5427" y="522.917" width="52.7779" height="339.256" rx="25.5" transform="rotate(-39.2836 81.5427 522.917)" fill="url(#paint1_linear)" fill-opacity="0.25"/>
</g>
<g style="mix-blend-mode:hard-light">
<rect x="299.898" y="557.067" width="52.7779" height="159.306" rx="25.5" transform="rotate(-39.2836 299.898 557.067)" fill="url(#paint2_linear)" fill-opacity="0.25"/>
</g>
<g style="mix-blend-mode:hard-light">
<rect x="-83" y="161.23" width="110.796" height="527.815" rx="53.5321" transform="rotate(-39.2836 -83 161.23)" fill="url(#paint3_linear)" fill-opacity="0.25"/>
</g>
<g style="mix-blend-mode:hard-light">
<rect x="85.682" y="435.313" width="66.4209" height="315.977" rx="33.2105" transform="rotate(-39.2836 85.682 435.313)" fill="url(#paint4_linear)" fill-opacity="0.25"/>
</g>
<g style="mix-blend-mode:hard-light">
<rect x="251.26" y="66.0231" width="110.796" height="400.92" rx="53.5321" transform="rotate(-39.2836 251.26 66.0231)" fill="url(#paint5_linear)" fill-opacity="0.25"/>
</g>
<g style="mix-blend-mode:hard-light">
<rect x="183.994" y="231.601" width="110.796" height="548.436" rx="53.5321" transform="rotate(-39.2836 183.994 231.601)" fill="url(#paint6_linear)" fill-opacity="0.25"/>
</g>
<g style="mix-blend-mode:hard-light">
<rect x="-83" y="404.398" width="43.7463" height="344.009" rx="21.8731" transform="rotate(-39.2836 -83 404.398)" fill="url(#paint7_linear)" fill-opacity="0.4"/>
</g>
</g>
<g opacity="0.19">
<g style="mix-blend-mode:hard-light">
<rect x="1736.85" y="865.091" width="52.7778" height="671.624" rx="26.3889" transform="rotate(140.716 1736.85 865.091)" fill="url(#paint8_linear)" fill-opacity="0.25"/>
</g>
<g style="mix-blend-mode:hard-light">
<rect x="1606.46" y="345.591" width="52.7778" height="339.256" rx="26.3889" transform="rotate(140.716 1606.46 345.591)" fill="url(#paint9_linear)" fill-opacity="0.25"/>
</g>
<g style="mix-blend-mode:hard-light">
<rect x="1388.1" y="311.441" width="52.7778" height="159.306" rx="26.3889" transform="rotate(140.716 1388.1 311.441)" fill="url(#paint10_linear)" fill-opacity="0.25"/>
</g>
<g style="mix-blend-mode:hard-light">
<rect x="1771" y="707.277" width="110.796" height="527.815" rx="55.3982" transform="rotate(140.716 1771 707.277)" fill="url(#paint11_linear)" fill-opacity="0.25"/>
</g>
<g style="mix-blend-mode:hard-light">
<rect x="1602.32" y="433.195" width="66.4209" height="315.977" rx="33.2104" transform="rotate(140.716 1602.32 433.195)" fill="url(#paint12_linear)" fill-opacity="0.25"/>
</g>
<g style="mix-blend-mode:hard-light">
<rect x="1436.83" y="802.24" width="110.796" height="400.92" rx="55.3982" transform="rotate(140.716 1436.83 802.24)" fill="url(#paint13_linear)" fill-opacity="0.25"/>
</g>
<g style="mix-blend-mode:hard-light">
<rect x="1504.01" y="636.907" width="110.796" height="548.436" rx="55.3982" transform="rotate(140.716 1504.01 636.907)" fill="url(#paint14_linear)" fill-opacity="0.25"/>
</g>
<g style="mix-blend-mode:hard-light" opacity="0.7">
<rect x="1771" y="464.109" width="43.7463" height="344.009" rx="21.8731" transform="rotate(140.716 1771 464.109)" fill="url(#paint15_linear)"/>
</g>
</g>
<g opacity="0.2">
<circle cx="735.597" cy="736.552" r="14.5522" transform="rotate(-90 735.597 736.552)" fill="#FE5E33" fill-opacity="0.3"/>
<circle cx="698.657" cy="776.851" r="14.5522" transform="rotate(-90 698.657 776.851)" fill="#FE5E33" fill-opacity="0.2"/>
<circle cx="698.657" cy="696.254" r="14.5522" transform="rotate(-90 698.657 696.254)" fill="#FE5E33" fill-opacity="0.2"/>
<circle cx="772.537" cy="736.552" r="14.5522" transform="rotate(-90 772.537 736.552)" fill="#FE5E33" fill-opacity="0.4"/>
<circle cx="735.597" cy="776.851" r="14.5522" transform="rotate(-90 735.597 776.851)" fill="#FE5E33" fill-opacity="0.3"/>
<circle cx="735.597" cy="696.254" r="14.5522" transform="rotate(-90 735.597 696.254)" fill="#FE5E33" fill-opacity="0.3"/>
<circle cx="809.478" cy="736.552" r="14.5522" transform="rotate(-90 809.478 736.552)" fill="#FE5E33" fill-opacity="0.5"/>
<circle cx="772.537" cy="776.851" r="14.5522" transform="rotate(-90 772.537 776.851)" fill="#FE5E33" fill-opacity="0.4"/>
<circle cx="772.537" cy="696.254" r="14.5522" transform="rotate(-90 772.537 696.254)" fill="#FE5E33" fill-opacity="0.4"/>
<circle cx="846.418" cy="736.552" r="14.5522" transform="rotate(-90 846.418 736.552)" fill="#FE5E33" fill-opacity="0.5"/>
<circle cx="809.478" cy="776.851" r="14.5522" transform="rotate(-90 809.478 776.851)" fill="#FE5E33" fill-opacity="0.5"/>
<circle cx="772.537" cy="655.955" r="14.5522" transform="rotate(-90 772.537 655.955)" fill="#FE5E33" fill-opacity="0.3"/>
<circle cx="809.478" cy="696.254" r="14.5522" transform="rotate(-90 809.478 696.254)" fill="#FE5E33" fill-opacity="0.4"/>
<circle cx="883.358" cy="736.552" r="14.5522" transform="rotate(-90 883.358 736.552)" fill="#FE5E33" fill-opacity="0.4"/>
<circle cx="846.418" cy="776.851" r="14.5522" transform="rotate(-90 846.418 776.851)" fill="#FE5E33" fill-opacity="0.5"/>
<circle cx="809.478" cy="655.955" r="14.5522" transform="rotate(-90 809.478 655.955)" fill="#FE5E33" fill-opacity="0.3"/>
<circle cx="846.418" cy="696.254" r="14.5522" transform="rotate(-90 846.418 696.254)" fill="#FE5E33" fill-opacity="0.4"/>
<circle cx="920.298" cy="736.552" r="14.5522" transform="rotate(-90 920.298 736.552)" fill="#FE5E33" fill-opacity="0.3"/>
<circle cx="883.358" cy="776.851" r="14.5522" transform="rotate(-90 883.358 776.851)" fill="#FE5E33" fill-opacity="0.4"/>
<circle cx="846.418" cy="655.955" r="14.5522" transform="rotate(-90 846.418 655.955)" fill="#FE5E33" fill-opacity="0.3"/>
<circle cx="846.418" cy="615.657" r="14.5522" transform="rotate(-90 846.418 615.657)" fill="#FE5E33" fill-opacity="0.2"/>
<circle cx="883.358" cy="696.254" r="14.5522" transform="rotate(-90 883.358 696.254)" fill="#FE5E33" fill-opacity="0.4"/>
<circle cx="957.239" cy="736.552" r="14.5522" transform="rotate(-90 957.239 736.552)" fill="#FE5E33" fill-opacity="0.2"/>
<circle cx="994.179" cy="655.955" r="14.5522" transform="rotate(-90 994.179 655.955)" fill="#FE5E33" fill-opacity="0.2"/>
<circle cx="669.552" cy="586.552" r="14.5522" transform="rotate(-90 669.552 586.552)" fill="#FE5E33" fill-opacity="0.2"/>
<circle cx="1031.12" cy="776.851" r="14.5522" transform="rotate(-90 1031.12 776.851)" fill="#FE5E33" fill-opacity="0.2"/>
<circle cx="920.298" cy="776.851" r="14.5522" transform="rotate(-90 920.298 776.851)" fill="#FE5E33" fill-opacity="0.3"/>
<circle cx="883.358" cy="655.955" r="14.5522" transform="rotate(-90 883.358 655.955)" fill="#FE5E33" fill-opacity="0.3"/>
<circle cx="920.298" cy="696.254" r="14.5522" transform="rotate(-90 920.298 696.254)" fill="#FE5E33" fill-opacity="0.3"/>
</g>
<g opacity="0.2">
<circle cx="924.074" cy="-12.1492" r="14.5522" transform="rotate(90 924.074 -12.1492)" fill="#FE5E33" fill-opacity="0.3"/>
<circle cx="924.074" cy="68.4476" r="14.5522" transform="rotate(90 924.074 68.4476)" fill="#FE5E33" fill-opacity="0.3"/>
<circle cx="961.015" cy="28.1494" r="14.5522" transform="rotate(90 961.015 28.1494)" fill="#FE5E33" fill-opacity="0.2"/>
<circle cx="961.015" cy="108.746" r="14.5522" transform="rotate(90 961.015 108.746)" fill="#FE5E33" fill-opacity="0.2"/>
<circle cx="887.134" cy="-12.1492" r="14.5522" transform="rotate(90 887.134 -12.1492)" fill="#FE5E33" fill-opacity="0.4"/>
<circle cx="887.134" cy="68.4476" r="14.5522" transform="rotate(90 887.134 68.4476)" fill="#FE5E33" fill-opacity="0.4"/>
<circle cx="924.074" cy="28.1494" r="14.5522" transform="rotate(90 924.074 28.1494)" fill="#FE5E33" fill-opacity="0.3"/>
<circle cx="924.074" cy="108.746" r="14.5522" transform="rotate(90 924.074 108.746)" fill="#FE5E33" fill-opacity="0.3"/>
<circle cx="850.194" cy="-12.1492" r="14.5522" transform="rotate(90 850.194 -12.1492)" fill="#FE5E33" fill-opacity="0.4"/>
<circle cx="850.194" cy="68.4476" r="14.5522" transform="rotate(90 850.194 68.4476)" fill="#FE5E33" fill-opacity="0.5"/>
<circle cx="887.134" cy="28.1494" r="14.5522" transform="rotate(90 887.134 28.1494)" fill="#FE5E33" fill-opacity="0.4"/>
<circle cx="887.134" cy="108.746" r="14.5522" transform="rotate(90 887.134 108.746)" fill="#FE5E33" fill-opacity="0.4"/>
<circle cx="813.253" cy="-12.1492" r="14.5522" transform="rotate(90 813.253 -12.1492)" fill="#FE5E33" fill-opacity="0.4"/>
<circle cx="813.253" cy="68.4476" r="14.5522" transform="rotate(90 813.253 68.4476)" fill="#FE5E33" fill-opacity="0.5"/>
<circle cx="850.194" cy="28.1494" r="14.5522" transform="rotate(90 850.194 28.1494)" fill="#FE5E33" fill-opacity="0.5"/>
<circle cx="887.134" cy="149.045" r="14.5522" transform="rotate(90 887.134 149.045)" fill="#FE5E33" fill-opacity="0.3"/>
<circle cx="850.194" cy="108.746" r="14.5522" transform="rotate(90 850.194 108.746)" fill="#FE5E33" fill-opacity="0.4"/>
<circle cx="776.313" cy="-12.1492" r="14.5522" transform="rotate(90 776.313 -12.1492)" fill="#FE5E33" fill-opacity="0.4"/>
<circle cx="776.313" cy="68.4476" r="14.5522" transform="rotate(90 776.313 68.4476)" fill="#FE5E33" fill-opacity="0.4"/>
<circle cx="813.253" cy="28.1494" r="14.5522" transform="rotate(90 813.253 28.1494)" fill="#FE5E33" fill-opacity="0.5"/>
<circle cx="850.194" cy="149.045" r="14.5522" transform="rotate(90 850.194 149.045)" fill="#FE5E33" fill-opacity="0.3"/>
<circle cx="813.253" cy="108.746" r="14.5522" transform="rotate(90 813.253 108.746)" fill="#FE5E33" fill-opacity="0.4"/>
<circle cx="739.373" cy="-12.1492" r="14.5522" transform="rotate(90 739.373 -12.1492)" fill="#FE5E33" fill-opacity="0.3"/>
<circle cx="739.373" cy="68.4476" r="14.5522" transform="rotate(90 739.373 68.4476)" fill="#FE5E33" fill-opacity="0.3"/>
<circle cx="776.313" cy="28.1494" r="14.5522" transform="rotate(90 776.313 28.1494)" fill="#FE5E33" fill-opacity="0.4"/>
<circle cx="813.253" cy="149.045" r="14.5522" transform="rotate(90 813.253 149.045)" fill="#FE5E33" fill-opacity="0.3"/>
<circle cx="813.253" cy="189.343" r="14.5522" transform="rotate(90 813.253 189.343)" fill="#FE5E33" fill-opacity="0.2"/>
<circle cx="776.313" cy="108.746" r="14.5522" transform="rotate(90 776.313 108.746)" fill="#FE5E33" fill-opacity="0.4"/>
<circle cx="702.433" cy="-12.1492" r="14.5522" transform="rotate(90 702.433 -12.1492)" fill="#FE5E33" fill-opacity="0.2"/>
<circle cx="702.433" cy="68.4476" r="14.5522" transform="rotate(90 702.433 68.4476)" fill="#FE5E33" fill-opacity="0.2"/>
<circle cx="665.492" cy="149.045" r="14.5522" transform="rotate(90 665.492 149.045)" fill="#FE5E33" fill-opacity="0.2"/>
<circle cx="990.119" cy="218.448" r="14.5522" transform="rotate(90 990.119 218.448)" fill="#FE5E33" fill-opacity="0.2"/>
<circle cx="628.552" cy="28.1494" r="14.5522" transform="rotate(90 628.552 28.1494)" fill="#FE5E33" fill-opacity="0.2"/>
<circle cx="739.373" cy="28.1494" r="14.5522" transform="rotate(90 739.373 28.1494)" fill="#FE5E33" fill-opacity="0.3"/>
<circle cx="776.313" cy="149.045" r="14.5522" transform="rotate(90 776.313 149.045)" fill="#FE5E33" fill-opacity="0.3"/>
<circle cx="739.373" cy="108.746" r="14.5522" transform="rotate(90 739.373 108.746)" fill="#FE5E33" fill-opacity="0.3"/>
</g>
<g opacity="0.15">
<g style="mix-blend-mode:hard-light">
<rect width="51.0568" height="634.081" rx="25.5284" transform="matrix(0.810401 -0.585876 0.67927 0.733888 422.59 708.913)" fill="url(#paint16_linear)" fill-opacity="0.25"/>
</g>
<g style="mix-blend-mode:hard-light">
<rect width="107.183" height="378.509" rx="53.5917" transform="matrix(0.810401 -0.585876 0.67927 0.733888 726.557 764.955)" fill="url(#paint17_linear)" fill-opacity="0.25"/>
</g>
</g>
</g>
<defs>
<linearGradient id="paint0_linear" x1="-5.9117" y1="775.501" x2="-7.66023" y2="52.7647" gradientUnits="userSpaceOnUse">
<stop stop-color="#000AFF"/>
<stop offset="1" stop-color="#B6B9FF" stop-opacity="0"/>
</linearGradient>
<linearGradient id="paint1_linear" x1="137.436" y1="885.516" x2="143.032" y2="523.389" gradientUnits="userSpaceOnUse">
<stop stop-color="#7000FF"/>
<stop offset="1" stop-color="white" stop-opacity="0"/>
</linearGradient>
<linearGradient id="paint2_linear" x1="355.791" y1="727.335" x2="363.825" y2="574.326" gradientUnits="userSpaceOnUse">
<stop stop-color="#6D96FF"/>
<stop offset="1" stop-color="#CDDBFF" stop-opacity="0"/>
</linearGradient>
<linearGradient id="paint3_linear" x1="-16.7468" y1="743.82" x2="-32.5685" y2="178.032" gradientUnits="userSpaceOnUse">
<stop offset="0.0112011" stop-color="#FF4E00"/>
<stop offset="1" stop-color="#FFE7DC" stop-opacity="0"/>
</linearGradient>
<linearGradient id="paint4_linear" x1="156.023" y1="773.032" x2="146.937" y2="477.613" gradientUnits="userSpaceOnUse">
<stop stop-color="#01B3FF"/>
<stop offset="1" stop-color="#90D4F1" stop-opacity="0"/>
</linearGradient>
<linearGradient id="paint5_linear" x1="368.596" y1="494.53" x2="371.575" y2="141.001" gradientUnits="userSpaceOnUse">
<stop stop-color="#FF7C03"/>
<stop offset="1" stop-color="#FDD6BA" stop-opacity="0"/>
</linearGradient>
<linearGradient id="paint6_linear" x1="301.33" y1="817.775" x2="306.567" y2="224.984" gradientUnits="userSpaceOnUse">
<stop stop-color="#FFC000"/>
<stop offset="1" stop-color="#FFEEBA" stop-opacity="0"/>
</linearGradient>
<linearGradient id="paint7_linear" x1="-36.6718" y1="772.078" x2="-39.9682" y2="438.972" gradientUnits="userSpaceOnUse">
<stop stop-color="#FFC000"/>
<stop offset="1" stop-color="#FFEEBA" stop-opacity="0"/>
</linearGradient>
<linearGradient id="paint8_linear" x1="1779.79" y1="1637.18" x2="1778.04" y2="914.439" gradientUnits="userSpaceOnUse">
<stop stop-color="#000AFF"/>
<stop offset="1" stop-color="#B6B9FF" stop-opacity="0"/>
</linearGradient>
<linearGradient id="paint9_linear" x1="1662.35" y1="708.191" x2="1667.95" y2="346.063" gradientUnits="userSpaceOnUse">
<stop stop-color="#7000FF"/>
<stop offset="1" stop-color="white" stop-opacity="0"/>
</linearGradient>
<linearGradient id="paint10_linear" x1="1443.99" y1="481.709" x2="1452.03" y2="328.7" gradientUnits="userSpaceOnUse">
<stop stop-color="#6D96FF"/>
<stop offset="1" stop-color="#CDDBFF" stop-opacity="0"/>
</linearGradient>
<linearGradient id="paint11_linear" x1="1837.25" y1="1289.87" x2="1821.43" y2="724.079" gradientUnits="userSpaceOnUse">
<stop offset="0.0112011" stop-color="#FF4E00"/>
<stop offset="1" stop-color="#FFE7DC" stop-opacity="0"/>
</linearGradient>
<linearGradient id="paint12_linear" x1="1672.66" y1="770.914" x2="1663.57" y2="475.495" gradientUnits="userSpaceOnUse">
<stop stop-color="#01B3FF"/>
<stop offset="1" stop-color="#90D4F1" stop-opacity="0"/>
</linearGradient>
<linearGradient id="paint13_linear" x1="1554.17" y1="1230.75" x2="1557.14" y2="877.218" gradientUnits="userSpaceOnUse">
<stop stop-color="#FF7C03"/>
<stop offset="1" stop-color="#FDD6BA" stop-opacity="0"/>
</linearGradient>
<linearGradient id="paint14_linear" x1="1621.34" y1="1223.08" x2="1626.58" y2="630.289" gradientUnits="userSpaceOnUse">
<stop stop-color="#FFC000"/>
<stop offset="1" stop-color="#FFEEBA" stop-opacity="0"/>
</linearGradient>
<linearGradient id="paint15_linear" x1="1817.33" y1="831.789" x2="1814.03" y2="498.683" gradientUnits="userSpaceOnUse">
<stop stop-color="#FFC000"/>
<stop offset="1" stop-color="#FFEEBA" stop-opacity="0"/>
</linearGradient>
<linearGradient id="paint16_linear" x1="41.5376" y1="728.925" x2="39.9266" y2="46.5892" gradientUnits="userSpaceOnUse">
<stop stop-color="#000AFF"/>
<stop offset="1" stop-color="#B6B9FF" stop-opacity="0"/>
</linearGradient>
<linearGradient id="paint17_linear" x1="113.509" y1="404.554" x2="116.255" y2="70.7852" gradientUnits="userSpaceOnUse">
<stop stop-color="#FF7C03"/>
<stop offset="1" stop-color="#FDD6BA" stop-opacity="0"/>
</linearGradient>
<clipPath id="clip0">
<rect width="1700" height="800" fill="white"/>
</clipPath>
</defs>
</svg>
